# xmcd
#
# Track frame offsets:
#	150
#	28285
#	45360
#	68332
#	88252
#	106465
#	127595
#	151550
#	173752
#	188257
#
# Disc length: 2783 seconds
#
# Revision: 2
# Processed by: cddbd v1.5.2PL0 Copyright (c) Steve Scherf et al.
# Submitted via: EZCDAudioConverter 8.0.2.1
#
DISCID=670add0a
DTITLE=Various Artist - Nhạc Pháp Trữ Tình 3. Dona Dona
DYEAR=1996
DGENRE=Contemporary Pop
TTITLE0=Elvis Phương - Maman
TTITLE1=Don Hồ - Mais Laissez Mes Main Sur Tes Hanche
TTITLE2=Anh Sơn - Adieu Jolie Candy
TTITLE3=Minh Xuân - La Drole De Fin
TTITLE4=Sandie Ngoc Lan - Pleure Doucement
TTITLE5=Anh Sơn - Oh ! Mon Amour
TTITLE6=Kiều Nga - Comme Toi
TTITLE7=Elvis Phương - Quan On Ne Peut Pas
TTITLE8=Ngọc Lan - Tout Tout Doucement
TTITLE9=Anh Sơn - Dona Dona
EXTD=
EXTT0=
EXTT1=
EXTT2=
EXTT3=
EXTT4=
EXTT5=
EXTT6=
EXTT7=
EXTT8=
EXTT9=
PLAYORDER=
